<?xml version="1.0" encoding="UTF-8"?>
<svg version="1.1" xmlns="http://www.w3.org/2000/svg" width="300" height="300">
<path d="M0 0 C2.039642 2.29459725 1.98863342 3.82571251 2.1875 6.875 C-0.78249549 14.6907776 -13.14147192 18.97078781 -20.125 22.8125 C-28.09914501 27.22936422 -36.02291992 31.68888413 -43.76025391 36.51098633 C-47.7971736 39 -47.7971736 39 -50 39 C-49.505 44.94 -49.505 44.94 -49 51 C-32.07510015 41.61119897 -32.07510015 41.61119897 -15.3125 31.9375 C-14.66369873 31.55553467 -14.01489746 31.17356934 -13.34643555 30.7800293 C-9.31568959 28.39708799 -5.31242562 25.9719722 -1.31640625 23.53125 C-0.3318042 22.93578369 0.65279785 22.34031738 1.66723633 21.72680664 C3.59366671 20.56140769 5.51442192 19.38655877 7.4284668 18.20092773 C12.35328401 15.23272344 16.19299211 13.12837339 22 13 C24.4375 14 24.4375 14 26 16 C26.5 19.4375 26.5 19.4375 26 23 C23.31528272 26.1994838 20.38010685 28.11081287 16.73828125 30.1015625 C15.710979 30.66866943 14.68367676 31.23577637 13.62524414 31.82006836 C12.53203857 32.4156958 11.43883301 33.01132324 10.3125 33.625 C8.02527436 34.88793429 5.73881647 36.15225999 3.453125 37.41796875 C2.34001953 38.03333496 1.22691406 38.64870117 0.08007812 39.28271484 C-3.79461296 41.44303325 -7.62493585 43.66978588 -11.4375 45.9375 C-20.0289084 51.04249245 -28.6910796 56.02304619 -37.35717773 60.99975586 C-38.43298096 61.61858643 -39.50878418 62.23741699 -40.6171875 62.875 C-41.58253418 63.42929688 -42.54788086 63.98359375 -43.54248047 64.5546875 C-45.39689593 65.64530339 -47.20996997 66.80664665 -49 68 C-49.58481121 70.88595946 -49.58481121 70.88595946 -49.6875 74.125 C-49.75324219 75.22070312 -49.81898437 76.31640625 -49.88671875 77.4453125 C-49.92410156 78.28835937 -49.96148437 79.13140625 -50 80 C-33.07031566 70.34368197 -16.16311405 60.65005387 0.71191406 50.8984375 C4.15797456 48.90879045 7.6060701 46.92271002 11.0546875 44.9375 C12.2290191 44.26117547 13.40333565 43.58482481 14.57763672 42.90844727 C16.7846143 41.63744356 18.99194476 40.36705229 21.19970703 39.09741211 C22.20630371 38.51741455 23.21290039 37.93741699 24.25 37.33984375 C25.21550781 36.78409668 26.18101562 36.22834961 27.17578125 35.65576172 C30.7439709 33.56383034 34.2522119 31.37986448 37.74609375 29.16625977 C40.20931588 27.89169173 42.2493719 27.31942778 45 27 C47.70703125 27.94140625 47.70703125 27.94140625 50.8125 29.5625 C51.39797607 29.86696045 51.98345215 30.1714209 52.58666992 30.48510742 C60.88244204 34.88139796 68.9532965 39.70544456 77.02734375 44.4921875 C80.73689546 46.68854653 84.46624651 48.82422271 88.25390625 50.8828125 C89.04112061 51.31875732 89.82833496 51.75470215 90.6394043 52.20385742 C92.08301169 53.00046637 93.5358946 53.780594 94.99926758 54.5402832 C98.48066316 56.48945966 100.34012001 57.98379036 101.4453125 61.78515625 C101.62835938 62.84605469 101.81140625 63.90695313 102 65 C99.9375 67.5625 99.9375 67.5625 97 70 C91.3420184 69.8424533 87.36505184 67.82171284 82.6875 64.875 C81.2092642 63.9763316 79.73002527 63.079312 78.25 62.18359375 C77.43144531 61.68456543 76.61289063 61.18553711 75.76953125 60.67138672 C70.86203939 57.70976037 65.90680437 54.83057745 60.94668579 51.95831299 C59.20675367 50.94867244 57.47086784 49.93231852 55.73510742 48.91552734 C54.12406128 47.98087646 54.12406128 47.98087646 52.48046875 47.02734375 C51.04030396 46.18804321 51.04030396 46.18804321 49.57104492 45.33178711 C47.31219444 44.161715 45.50504261 43.37042761 43 43 C41.10285168 43.73084449 41.10285168 43.73084449 39.375 44.9375 C36 47 36 47 34 47 C34 47.66 34 48.32 34 49 C34.70600342 49.26393555 35.41200684 49.52787109 36.1394043 49.79980469 C39.16859058 51.07073408 41.92080195 52.56762793 44.76953125 54.203125 C45.89447998 54.84717285 47.01942871 55.4912207 48.1784668 56.15478516 C49.38991935 56.85300248 50.60126126 57.55141182 51.8125 58.25 C53.06216726 58.9680904 54.31192423 59.68602472 55.56176758 60.40380859 C58.75642236 62.24018787 61.94818742 64.08152432 65.13879395 65.92492676 C66.93020305 66.95968376 68.72233355 67.9931801 70.51464844 69.02636719 C73.74140139 70.88835309 76.96515747 72.75539365 80.1875 74.625 C81.14696533 75.17961914 82.10643066 75.73423828 83.0949707 76.30566406 C99.33449952 85.7675917 99.33449952 85.7675917 101.6875 90.125 C102.0278568 93.2562826 101.85986591 94.48918102 100 97 C97.10376161 98.44811919 95.23668724 98.30789832 92 98 C89.2202773 96.88720003 86.69914542 95.39637555 84.125 93.875 C83.34962891 93.43051514 82.57425781 92.98603027 81.77539062 92.52807617 C79.17547033 91.03230506 76.5875113 89.51712442 74 88 C72.13314357 86.91479484 70.26594714 85.83017442 68.3984375 84.74609375 C64.40136097 82.42145796 60.40835564 80.09000533 56.41796875 77.75390625 C50.13225682 74.07544162 43.84241039 70.40431358 37.54101562 66.7527771 C35.84753828 65.77032703 34.15616737 64.78424888 32.46484375 63.7980957 C31.43101562 63.19956787 30.3971875 62.60104004 29.33203125 61.984375 C28.42171143 61.45553711 27.5113916 60.92669922 26.57348633 60.38183594 C24.07666716 59.0411665 21.69513777 57.87966302 19 57 C16.47724969 57.82596918 16.47724969 57.82596918 14.1875 59.375 C13.00220703 60.09816406 13.00220703 60.09816406 11.79296875 60.8359375 C11.20128906 61.22007813 10.60960938 61.60421875 10 62 C15.45757835 65.92562653 21.17722688 69.27167057 27.0625 72.5 C35.25141771 76.99324746 43.32543488 81.662747 51.38183594 86.38891602 C57.02636783 89.69493529 62.68518641 92.97284712 68.37109375 96.20703125 C68.99171692 96.56025452 69.61234009 96.91347778 70.25177002 97.27740479 C73.26442117 98.99113901 76.27903402 100.70129667 79.29638672 102.40673828 C82.54308799 104.25097066 85.77383276 106.12011882 89 108 C90.05493652 108.5995752 91.10987305 109.19915039 92.19677734 109.81689453 C93.18758301 110.4045459 94.17838867 110.99219727 95.19921875 111.59765625 C96.07795654 112.10949463 96.95669434 112.62133301 97.86206055 113.14868164 C100.67449429 115.58406877 101.39561317 117.34402117 102 121 C100.34117685 125.13130243 98.11889049 126.89760729 94.2734375 128.98046875 C93.33121338 129.50036377 92.38898926 130.02025879 91.41821289 130.5559082 C90.41395264 131.0943335 89.40969238 131.63275879 88.375 132.1875 C86.2974641 133.32943298 84.22064787 134.4726762 82.14453125 135.6171875 C80.59499756 136.46555176 80.59499756 136.46555176 79.01416016 137.33105469 C74.65051203 139.74721365 70.35207118 142.26775222 66.0625 144.8125 C65.34175293 145.23877686 64.62100586 145.66505371 63.87841797 146.10424805 C62.25117441 147.06763598 60.62539212 148.03349166 59 149 C65.43070625 153.07451631 71.94032497 156.98238695 78.546875 160.765625 C79.12498932 161.09674789 79.70310364 161.42787079 80.29873657 161.76902771 C83.2446817 163.45509432 86.19404868 165.13479647 89.14794922 166.80688477 C90.79561279 167.74745728 90.79561279 167.74745728 92.4765625 168.70703125 C93.46736816 169.2688208 94.45817383 169.83061035 95.47900391 170.40942383 C97.70168732 171.81178509 99.39118209 172.93413913 101 175 C101.63316583 180.90954774 101.63316583 180.90954774 99.875 183.9375 C97.12163553 185.49773986 95.13777212 185.25116274 92 185 C89.05004883 183.70581055 89.05004883 183.70581055 85.95703125 181.88671875 C85.39493958 181.56084274 84.8328479 181.23496674 84.25372314 180.8992157 C83.05363225 180.20110911 81.85699279 179.49704062 80.66360474 178.78753662 C78.79842429 177.67913538 76.92408666 176.58794851 75.04663086 175.50048828 C69.36363342 172.20003586 63.71957158 168.8408914 58.109375 165.41796875 C57.24594482 164.89823486 56.38251465 164.37850098 55.49291992 163.84301758 C53.90996631 162.88688498 52.33653225 161.91475302 50.7746582 160.92456055 C46.75381639 158.36356542 46.75381639 158.36356542 42.171875 158.625 C41.45515625 159.07875 40.7384375 159.5325 40 160 C38.6078125 160.804375 38.6078125 160.804375 37.1875 161.625 C36.465625 162.07875 35.74375 162.5325 35 163 C39.00652441 166.4386093 43.19284517 168.89006488 47.8125 171.375 C58.37617668 177.15041153 68.75709493 183.22638387 79.13818359 189.32226562 C81.83477331 190.90313617 84.53561843 192.47641577 87.23828125 194.046875 C88.78389834 194.94784089 90.32947417 195.84887757 91.875 196.75 C92.57633057 197.15605469 93.27766113 197.56210938 94.00024414 197.98046875 C96.59393735 199.49802378 98.8653366 200.8653366 101 203 C101.30078125 204.875 101.30078125 204.875 101.3125 207 C101.32925781 207.70125 101.34601563 208.4025 101.36328125 209.125 C101.24339844 209.74375 101.12351563 210.3625 101 211 C98.08685848 212.94209435 96.57644846 213.55661 93.11962891 213.44189453 C88.34198891 212.445865 84.28591304 209.47316057 80.1875 206.9375 C78.0396442 205.64616739 75.89118556 204.35583706 73.7421875 203.06640625 C72.63327148 202.39496582 71.52435547 201.72352539 70.38183594 201.03173828 C63.82569782 197.09294378 57.18682793 193.29538402 50.53979492 189.51245117 C45.29641637 186.52024351 40.12374148 183.47285622 35.04296875 180.2109375 C34.10541748 179.62650879 33.16786621 179.04208008 32.2019043 178.43994141 C30.45473022 177.34714851 28.72634687 176.22345535 27.02270508 175.06396484 C24.60918306 173.58044434 22.78284852 172.55153494 20 172 C16.26559486 173.09698151 13.20728185 174.81844001 10 177 C12.92975222 179.2875096 15.94000365 181.19978792 19.1640625 183.046875 C20.19015625 183.63662109 21.21625 184.22636719 22.2734375 184.83398438 C23.37945312 185.46626953 24.48546875 186.09855469 25.625 186.75 C26.79182622 187.41964393 27.95849009 188.08957084 29.125 188.75976562 C31.54787512 190.15148769 33.97144346 191.54199104 36.39550781 192.93164062 C43.00784331 196.72391181 49.6064124 200.54010435 56.20727539 204.35229492 C61.23752447 207.2562503 66.26962899 210.15677575 71.31021118 213.04275513 C73.08432545 214.05877184 74.85769919 215.07606928 76.63085938 216.09375 C78.84815314 217.36582292 81.06681075 218.63552285 83.28710938 219.90234375 C86.20571508 221.57863292 89.10734735 223.27936599 92 225 C92.89315918 225.5244873 93.78631836 226.04897461 94.70654297 226.58935547 C95.52396973 227.0948291 96.34139648 227.60030273 97.18359375 228.12109375 C97.8995874 228.55736084 98.61558105 228.99362793 99.35327148 229.44311523 C101.6087779 231.57556363 101.9132873 232.91411545 102 236 C100.18244204 240.2321269 97.89443997 242.0317605 93.93359375 244.2421875 C92.90427734 244.82548828 91.87496094 245.40878906 90.81445312 246.00976562 C89.70005859 246.62529297 88.58566406 247.24082031 87.4375 247.875 C86.26553279 248.53448821 85.0943208 249.19532012 83.92382812 249.85742188 C81.49231264 251.23146043 79.05765414 252.59966835 76.62060547 253.96386719 C71.04947721 257.08874933 65.52737223 260.29858786 60 263.5 C57.83879459 264.74783399 55.6773352 265.99522819 53.515625 267.2421875 C52.44376953 267.86061523 51.37191406 268.47904297 50.26757812 269.11621094 C46.96600319 271.01959947 43.66287466 272.92026675 40.359375 274.8203125 C39.26471924 275.4505835 38.17006348 276.08085449 37.04223633 276.73022461 C34.86596365 277.98273127 32.68873294 279.23357495 30.51049805 280.48266602 C25.2055658 283.53376048 19.93814641 286.63011123 14.72265625 289.83203125 C13.22750488 290.74251221 13.22750488 290.74251221 11.70214844 291.67138672 C9.83139015 292.81476839 7.96816001 293.97059849 6.11425781 295.14111328 C1.13174639 298.17616025 -2.13589474 299.80726644 -8 299 C-9.9375 297.9375 -9.9375 297.9375 -11 296 C-11.5 292.5625 -11.5 292.5625 -11 289 C-7.74274757 285.9862463 -4.15313054 283.81099848 -0.30078125 281.63671875 C0.81248535 281.00499756 1.92575195 280.37327637 3.07275391 279.72241211 C3.66098938 279.39127411 4.24922485 279.06013611 4.85528564 278.71896362 C7.36686315 277.30504564 9.87292516 275.8814735 12.37945557 274.45863342 C13.67616536 273.72272457 14.97316501 272.98732624 16.27044678 272.25242615 C22.57436106 268.68042237 28.85221607 265.06387052 35.125 261.4375 C37.24736419 260.21088275 39.36976015 258.98432046 41.4921875 257.7578125 C42.54889648 257.14711914 43.60560547 256.53642578 44.69433594 255.90722656 C47.58715353 254.23819473 50.4820753 252.57294276 53.37850952 250.91020203 C55.76249836 249.54156986 58.14563764 248.17146192 60.52874756 246.80130005 C62.20211643 245.84000745 63.87667592 244.88078834 65.55126953 243.92163086 C70.47643527 241.08851236 75.33277982 238.24291333 80 235 C78.78362621 234.1277121 77.55119108 233.27779506 76.3125 232.4375 C75.62800781 231.96183594 74.94351563 231.48617187 74.23828125 230.99609375 C71.32777998 229.70084449 70.04761589 230.16779009 67 231 C64.58849653 232.14748881 64.58849653 232.14748881 62.17578125 233.6328125 C61.24330566 234.18380615 60.31083008 234.7347998 59.35009766 235.30249023 C58.34769043 235.90391846 57.3452832 236.50534668 56.3125 237.125 C54.13974019 238.41086159 51.96654843 239.69599352 49.79296875 240.98046875 C48.67067871 241.6461084 47.54838867 242.31174805 46.39208984 242.99755859 C40.99305777 246.1847517 35.55944051 249.31119149 30.125 252.4375 C27.95178858 253.69004459 25.77861173 254.94264917 23.60546875 256.1953125 C20.26922891 258.11718508 16.93278533 260.03870315 13.59619141 261.95996094 C11.32511867 263.26781353 9.05428331 264.57607842 6.78369141 265.88476562 C4.57725222 267.15589096 2.36991474 268.42545848 0.16162109 269.69335938 C-4.65803658 272.46604962 -9.45796237 275.25899391 -14.19921875 278.1640625 C-14.97773193 278.63739014 -15.75624512 279.11071777 -16.55834961 279.59838867 C-17.96337513 280.45686756 -19.36201781 281.32593466 -20.75219727 282.20825195 C-24.65849858 284.58838954 -27.42504317 285.59586992 -32 285 C-34.4375 283.4375 -34.4375 283.4375 -36 281 C-35.90625 277.56640625 -35.90625 277.56640625 -35 274 C-32.97265625 272.09375 -32.97265625 272.09375 -30.0625 270.5 C-29.50457764 270.18361572 -28.94665527 269.86723145 -28.37182617 269.54125977 C-27.04551043 268.79034992 -25.71331012 268.0497854 -24.37695312 267.31689453 C-21.65218927 265.80730371 -18.95884133 264.24877287 -16.265625 262.68359375 C-11.25752437 259.77385281 -6.24020038 256.88073108 -1.21733093 253.99656677 C4.90057055 250.48344483 11.01339687 246.96156452 17.125 243.4375 C18.71380981 242.52266846 18.71380981 242.52266846 20.3347168 241.58935547 C25.87010947 238.39843882 31.39306033 235.18773396 36.8984375 231.9453125 C38.00687012 231.29377197 39.11530273 230.64223145 40.25732422 229.97094727 C42.37837494 228.7226222 44.49728476 227.47065051 46.61376953 226.21459961 C47.55591309 225.6603833 48.49805664 225.10616699 49.46875 224.53515625 C50.29826172 224.044104 51.12777344 223.55305176 51.98242188 223.04711914 C54 222 54 222 56 222 C56 221.34 56 220.68 56 220 C55.2575 219.71125 54.515 219.4225 53.75 219.125 C51 218 51 218 48.9375 216.8125 C46.46951304 215.77753773 45.51833783 216.2038557 43 217 C40.37837779 218.3490186 37.81396734 219.73614456 35.25 221.1875 C34.46415527 221.62819824 33.67831055 222.06889648 32.86865234 222.52294922 C25.39664054 226.73365616 17.99441352 231.06391104 10.59521484 235.40087891 C2.13319052 240.35642948 -6.37390991 245.23029256 -14.90188599 250.07113647 C-21.11721796 253.59944731 -27.30666631 257.1604406 -33.41796875 260.8671875 C-34.91529541 261.77198853 -34.91529541 261.77198853 -36.44287109 262.69506836 C-38.29715484 263.82098491 -40.14561229 264.956579 -41.98681641 266.10375977 C-50.61096214 271.33497836 -50.61096214 271.33497836 -56 271 C-59.87072625 269.32860174 -63.40138543 267.18611416 -67 265 C-68.79706377 263.99074778 -70.59781808 262.98803655 -72.40234375 261.9921875 C-82.11893922 256.53257658 -91.79531335 251.00947423 -101.375 245.3125 C-102.6587854 244.55525635 -102.6587854 244.55525635 -103.96850586 243.78271484 C-104.7497583 243.31430176 -105.53101074 242.84588867 -106.3359375 242.36328125 C-107.36533447 241.74900269 -107.36533447 241.74900269 -108.41552734 241.12231445 C-110 240 -110 240 -111 238 C-111.44396083 232.78346028 -111.44396083 232.78346028 -109.9375 230.125 C-106.91460528 228.36977081 -104.34465225 228.34976295 -101 229 C-96.85991335 230.8125562 -93.01559431 233.08309481 -89.125 235.375 C-88.02397949 236.00825195 -86.92295898 236.64150391 -85.78857422 237.29394531 C-82.51667909 239.18089868 -79.25733198 241.0880436 -76 243 C-74.22951717 244.029249 -72.45871612 245.05795092 -70.6875 246.0859375 C-60.23184347 252.17877102 -60.23184347 252.17877102 -56 255 C-50.95225851 254.77565593 -48.07415245 252.82974605 -44 250 C-44.7120459 249.59386475 -45.4240918 249.18772949 -46.15771484 248.76928711 C-54.12575195 244.22331359 -62.09056421 239.67173345 -70.05230713 235.11474609 C-71.32595901 234.38578185 -72.59967856 233.65693581 -73.87347412 232.92822266 C-77.93893412 230.60223145 -82.00136324 228.27103168 -86.0625 225.9375 C-87.61880127 225.04695923 -87.61880127 225.04695923 -89.20654297 224.13842773 C-107.24397038 213.75602962 -107.24397038 213.75602962 -111 210 C-111.4667512 206.42157414 -111.40228636 204.62756672 -109.4375 201.5625 C-106.69304232 199.80323225 -105.36074005 199.76708641 -102.2019043 200.31518555 C-97.14937404 201.88657344 -92.69662519 204.91723787 -88.1875 207.625 C-86.45396847 208.64626628 -84.72042588 209.66751435 -82.98622131 210.68763733 C-81.18738087 211.74755808 -79.39143111 212.8122577 -77.59570312 213.87744141 C-70.82694792 217.88383623 -63.99059263 221.77435353 -57.16796875 225.68798828 C-52.33164538 228.47035776 -47.51716308 231.27399579 -42.765625 234.19921875 C-41.9826001 234.67705811 -41.1995752 235.15489746 -40.39282227 235.6472168 C-38.97401274 236.51753934 -37.56232816 237.39964326 -36.15991211 238.29614258 C-33.35570595 240.01049641 -31.55045183 241.03015115 -28.21875 240.84765625 C-25.60493109 239.84906698 -23.37232097 238.47468601 -21 237 C-20.34 237 -19.68 237 -19 237 C-19 236.34 -19 235.68 -19 235 C-19.84046875 234.75636719 -20.6809375 234.51273438 -21.546875 234.26171875 C-25.40724141 232.85120025 -28.75814098 230.94014535 -32.25 228.8125 C-33.76618915 227.90501595 -35.28316888 226.99885194 -36.80078125 226.09375 C-38.04335693 225.35125 -38.04335693 225.35125 -39.31103516 224.59375 C-44.32668009 221.62097624 -49.38423498 218.72069943 -54.4375 215.8125 C-55.53521729 215.17981201 -56.63293457 214.54712402 -57.76391602 213.89526367 C-63.48141701 210.60018736 -69.20122969 207.30914484 -74.921875 204.01953125 C-80.34354206 200.9009865 -85.75863726 197.77128714 -91.16992188 194.63476562 C-93.7272923 193.15752681 -96.29209259 191.69428707 -98.859375 190.234375 C-100.21914143 189.44859364 -101.57855316 188.66219793 -102.9375 187.875 C-104.06027344 187.23304688 -105.18304688 186.59109375 -106.33984375 185.9296875 C-109.44773836 183.67520889 -110.44830768 182.52434965 -112 179 C-112.44109502 175.25220615 -112.39925082 171.52548202 -112.37231445 167.75561523 C-112.37596512 166.62014252 -112.37961578 165.4846698 -112.38337708 164.31478882 C-112.39148125 160.56257154 -112.37787383 156.81078624 -112.36328125 153.05859375 C-112.36276267 150.45215353 -112.3632803 147.84571291 -112.36479187 145.23927307 C-112.36567393 139.77770837 -112.35461194 134.31626801 -112.33618164 128.85473633 C-112.31500471 122.5431987 -112.31150689 116.23184303 -112.3177436 109.92027706 C-112.32344048 103.84352767 -112.31768362 97.76685253 -112.30657005 91.69011116 C-112.30271629 89.10608236 -112.30157056 86.52204808 -112.3031559 83.93801689 C-112.30352598 80.33023463 -112.29092228 76.72273075 -112.2746582 73.11499023 C-112.27713562 72.04319016 -112.27961304 70.97139008 -112.28216553 69.86711121 C-112.27508072 68.88438232 -112.26799591 67.90165344 -112.26069641 66.8891449 C-112.25864354 66.03652793 -112.25659067 65.18391096 -112.25447559 64.30545712 C-111.97400743 61.7645167 -111.3601489 60.15538047 -110 58 C-107.20129973 56.60064987 -105.09501208 56.74734595 -102 57 C-99.44050454 58.85342775 -99.02081202 59.93756393 -98 63 C-97.91080504 64.53550624 -97.87802309 66.07462299 -97.87974548 67.61271667 C-97.87837082 68.55922592 -97.87699615 69.50573517 -97.87557983 70.48092651 C-97.87917511 71.5174234 -97.88277039 72.55392029 -97.88647461 73.62182617 C-97.88632858 74.71466415 -97.88618256 75.80750214 -97.8860321 76.93345642 C-97.88672995 80.55331391 -97.89451642 84.17312023 -97.90234375 87.79296875 C-97.90420838 90.29974845 -97.90563207 92.80652852 -97.90663147 95.31330872 C-97.91006226 101.24185005 -97.91794743 107.17037491 -97.92798096 113.09890777 C-97.94025246 120.51059669 -97.94562534 127.92228789 -97.95117188 135.33398438 C-97.96190291 148.55599895 -97.97878337 161.77799831 -98 175 C-97.278125 175.268125 -96.55625 175.53625 -95.8125 175.8125 C-93.02220157 176.990626 -90.57750674 178.4188404 -88 180 C-87.99761165 179.31216525 -87.99522329 178.6243305 -87.99276257 177.91565228 C-87.93366522 161.1907086 -87.8581492 144.46592827 -87.76428509 127.74114513 C-87.71929064 119.6532083 -87.6798845 111.56531586 -87.65356445 103.47729492 C-87.63061381 96.42900675 -87.5972489 89.38085863 -87.55129844 82.33268148 C-87.52732637 78.599581 -87.50862383 74.86661957 -87.50238609 71.13344383 C-87.49523321 66.96921324 -87.46483336 62.80546761 -87.43237305 58.64135742 C-87.43380814 57.39914429 -87.43524323 56.15693115 -87.4367218 54.8770752 C-87.42418365 53.74545456 -87.41164551 52.61383392 -87.39872742 51.44792175 C-87.39411845 50.46252505 -87.38950949 49.47712835 -87.38476086 48.46187115 C-87 46 -87 46 -85.69382954 44.18684864 C-82.82251264 42.17494692 -80.37033717 42.57870785 -77 43 C-74.75161101 45.20086631 -74.05720063 46.58009395 -73.63085651 49.70985794 C-73.63500458 51.27506243 -73.63500458 51.27506243 -73.63923645 52.87188721 C-73.63511246 54.07219574 -73.63098846 55.27250427 -73.6267395 56.50918579 C-73.63752533 57.82260956 -73.64831116 59.13603333 -73.65942383 60.48925781 C-73.66027021 61.88884462 -73.65979473 63.28843276 -73.65809631 64.6880188 C-73.65723537 68.48529822 -73.67487693 72.2822935 -73.69581819 76.07950687 C-73.7145686 80.04865644 -73.71633413 84.01781249 -73.71989441 87.98699951 C-73.72921969 95.5021974 -73.75383998 103.01726441 -73.78394288 110.53240466 C-73.81747187 119.08854349 -73.83396912 127.64468855 -73.84902918 136.20087671 C-73.88038914 153.80065869 -73.93315901 171.40031882 -74 189 C-73.113125 189.268125 -72.22625 189.53625 -71.3125 189.8125 C-68.23122452 190.91710819 -65.73778595 192.22849144 -63 194 C-63.00276538 193.1800118 -63.00553076 192.36002359 -63.00837994 191.51518726 C-63.07461619 171.56842491 -63.1242691 151.6216815 -63.15543652 131.67483234 C-63.17090923 122.02870549 -63.1920065 112.38265202 -63.22631836 102.73657227 C-63.2562083 94.32961945 -63.27557206 85.92271978 -63.28226548 77.5157153 C-63.28617843 73.0637426 -63.29538281 68.61192194 -63.31719017 64.15999794 C-63.33754893 59.9698651 -63.34383505 55.77994697 -63.33932304 51.58976936 C-63.34014852 50.05186547 -63.34611789 48.51395442 -63.35761642 46.97609329 C-63.37255146 44.87562902 -63.36895057 42.7759745 -63.36076355 40.67549133 C-63.36352893 39.50020528 -63.36629431 38.32491922 -63.36914349 37.11401844 C-62.95799383 33.64564461 -62.06563254 31.78847569 -60 29 C-57.74536133 27.36938477 -57.74536133 27.36938477 -55.08203125 25.94140625 C-54.08582764 25.39709961 -53.08962402 24.85279297 -52.06323242 24.29199219 C-50.99049072 23.72125977 -49.91774902 23.15052734 -48.8125 22.5625 C-46.55354807 21.33151574 -44.29576673 20.0983813 -42.0390625 18.86328125 C-41.171959 18.39128799 -41.171959 18.39128799 -40.28733826 17.90975952 C-32.97033097 13.91696044 -25.80134059 9.67131147 -18.6184082 5.44360352 C-17.67570068 4.88987061 -16.73299316 4.3361377 -15.76171875 3.765625 C-14.93631592 3.27868164 -14.11091309 2.79173828 -13.26049805 2.29003906 C-8.26902542 -0.55853437 -5.85870505 -1.51892353 0 0 Z M-10.83984375 72.0546875 C-12.90064142 73.2818892 -14.93319242 74.55755469 -16.9375 75.875 C-17.91267578 76.46925781 -18.88785156 77.06351562 -19.89257812 77.67578125 C-21.96383168 78.9424983 -24.01010611 80.25087014 -26.03082275 81.59674072 C-28.91866494 83.44130139 -31.83916114 84.84958641 -34.98223877 86.21014404 C-44.63776399 90.53062201 -44.63776399 90.53062201 -51.14645576 98.44792557 C-52.94253156 105.57524301 -52.52462568 112.8616461 -52.26953125 120.1484375 C-52.25504905 122.49342487 -52.24814994 124.83847013 -52.24845886 127.1835022 C-52.22837838 132.08003769 -52.1420699 136.96918869 -52.00317383 141.86376953 C-51.82706103 148.13318107 -51.77904318 154.3952679 -51.77542591 160.66690636 C-51.76520605 165.50089516 -51.70718252 170.33331606 -51.63266563 175.16670609 C-51.59904955 177.47822168 -51.5756993 179.78991053 -51.56287575 182.10163498 C-51.53389271 185.33033061 -51.44537628 188.55184863 -51.33911133 191.77880859 C-51.3405162 193.20493973 -51.3405162 193.20493973 -51.34194946 194.65988159 C-51.15485405 198.66153673 -50.98975026 201.05184284 -48.01913929 203.89761734 C-45.73600843 205.43927868 -43.45306004 206.75053281 -41 208 C-39.95787354 208.61746094 -38.91574707 209.23492187 -37.84204102 209.87109375 C-36.43716431 210.64646484 -36.43716431 210.64646484 -35.00390625 211.4375 C-33.42319336 212.31535156 -33.42319336 212.31535156 -31.81054688 213.2109375 C-30.73869141 213.80132812 -29.66683594 214.39171875 -28.5625 215 C-26.41712576 216.18597635 -24.27258378 217.37345956 -22.12890625 218.5625 C-21.09652832 219.1296875 -20.06415039 219.696875 -19.00048828 220.28125 C-15.32373279 222.38738171 -11.81283232 224.71411697 -8.33178711 227.12890625 C-4.93871571 228.39646763 -3.26374332 227.43640784 0 226 C2.04790718 224.93870776 4.0681703 223.8229042 6.0625 222.6640625 C7.18914062 222.01179687 8.31578125 221.35953125 9.4765625 220.6875 C10.34522949 220.17896484 10.34522949 220.17896484 11.23144531 219.66015625 C12.99213248 218.62960495 14.75729085 217.60709853 16.5234375 216.5859375 C21.78926218 213.52525221 26.95782007 210.41436737 32 207 C28.63333504 204.1845147 25.27647663 201.90013336 21.4296875 199.79296875 C20.3675 199.20580078 19.3053125 198.61863281 18.2109375 198.01367188 C17.11007813 197.41103516 16.00921875 196.80839844 14.875 196.1875 C-6.57864238 184.42135762 -6.57864238 184.42135762 -10 181 C-10.625 177.8125 -10.625 177.8125 -10 174 C-8.38989258 172.55908203 -8.38989258 172.55908203 -6.20703125 171.1953125 C-5.3862207 170.67912354 -4.56541016 170.16293457 -3.71972656 169.63110352 C1.13538779 166.71934238 6.02024769 163.86810368 10.9375 161.0625 C12.6673456 160.07007862 14.39718843 159.07765235 16.12686157 158.08493042 C17.90939872 157.06235909 19.69268197 156.04109866 21.47607422 155.02001953 C28.06016682 151.24834708 34.62849834 147.44922582 41.19750977 143.65136719 C46.26953017 140.72095206 51.34573485 137.79872677 56.43914795 134.90567017 C58.84149946 133.54046335 61.24115891 132.17056329 63.640625 130.80029297 C65.33333218 129.83623142 67.02990354 128.87896467 68.7265625 127.921875 C70.26570313 127.04208984 70.26570313 127.04208984 71.8359375 126.14453125 C72.73876465 125.63253174 73.6415918 125.12053223 74.57177734 124.59301758 C77.06021571 122.96049593 78.97793069 121.1742396 81 119 C79.61518672 118.12808053 78.21654754 117.27809616 76.8125 116.4375 C76.03519531 115.96183594 75.25789063 115.48617187 74.45703125 114.99609375 C71.39177416 113.75342196 70.16202901 114.12480069 67 115 C64.39365296 116.2455272 64.39365296 116.2455272 61.73828125 117.8515625 C60.20300781 118.74645386 60.20300781 118.74645386 58.63671875 119.65942383 C57.53972656 120.30806396 56.44273437 120.9567041 55.3125 121.625 C54.1566977 122.30114024 53.00043955 122.97650178 51.84375 123.65112305 C49.43518017 125.05679464 47.02861755 126.46581154 44.62353516 127.87744141 C35.76757 133.07097581 26.86344004 138.1817206 17.95898438 143.29150391 C15.15503112 144.91048615 12.36549536 146.55190147 9.578125 148.19921875 C7.96907332 149.13336964 6.35972044 150.06700199 4.75 151 C4.04166016 151.42772705 3.33332031 151.8554541 2.60351562 152.29614258 C-0.6454955 154.15573208 -2.64059806 155.01969326 -6.421875 154.8125 C-9 154 -9 154 -10 153 C-10.07179964 151.48071962 -10.08392007 149.95832518 -10.0625 148.4375 C-10.05347656 147.61121094 -10.04445312 146.78492188 -10.03515625 145.93359375 C-10.02355469 145.29550781 -10.01195312 144.65742188 -10 144 C-9.28352295 143.73082764 -8.5670459 143.46165527 -7.82885742 143.18432617 C-4.97719207 141.99045126 -2.4091377 140.60544457 0.26171875 139.05078125 C1.28595947 138.45700684 2.3102002 137.86323242 3.36547852 137.25146484 C5.00987915 136.29167725 5.00987915 136.29167725 6.6875 135.3125 C8.42622464 134.30350555 10.1649522 133.2945161 11.90385437 132.28582764 C13.71547661 131.23439082 15.52626478 130.18152927 17.33691406 129.12841797 C23.23797566 125.69769158 29.15055973 122.28693178 35.0625 118.875 C36.1249292 118.26052002 37.1873584 117.64604004 38.28198242 117.01293945 C44.15770938 113.61908362 50.054522 110.27024716 56 107 C54.80256066 103.40768199 53.21241139 102.62217956 50.08203125 100.671875 C46.3142993 99.45602154 42.90911781 100.56911649 39.41723633 102.22412109 C38.13755981 102.99103271 38.13755981 102.99103271 36.83203125 103.7734375 C35.86531494 104.34626465 34.89859863 104.9190918 33.90258789 105.50927734 C32.88285889 106.12496582 31.86312988 106.7406543 30.8125 107.375 C29.75474365 107.99971191 28.6969873 108.62442383 27.60717773 109.26806641 C22.54791168 112.25806488 17.51778624 115.29051794 12.515625 118.375 C11.25528442 119.13804443 11.25528442 119.13804443 9.96948242 119.91650391 C8.41230892 120.86006355 6.86473544 121.81973242 5.3293457 122.79833984 C-0.0226048 126.02161116 -3.76661232 126.45445388 -10 126 C-10.88481982 122.73297297 -11.05485177 120.24319956 -10 117 C-7.59545898 115.05615234 -7.59545898 115.05615234 -4.37109375 113.2109375 C-3.79256653 112.8737973 -3.21403931 112.5366571 -2.61798096 112.18930054 C-0.75454655 111.10913951 1.12158752 110.05386039 3 109 C4.22678852 108.29830592 5.45294934 107.59551322 6.6784668 106.89160156 C10.997606 104.41987861 15.33309867 101.97745974 19.67578125 99.54736328 C21.53133771 98.50762811 23.38306945 97.46134266 25.234375 96.4140625 C26.31944336 95.8051416 27.40451172 95.1962207 28.52246094 94.56884766 C31.09628573 93.23777091 31.09628573 93.23777091 32 91 C28.49963612 88.9718673 24.99820026 86.94559837 21.49584961 84.92089844 C20.30969616 84.23486072 19.1238142 83.54835332 17.93823242 82.86132812 C15.06760494 81.19804206 12.19209984 79.54762266 9.29858398 77.92431641 C6 76 6 76 3.10961914 73.96240234 C-2.16851753 70.42595125 -4.91534494 69.25664152 -10.83984375 72.0546875 Z " fill="#FCDA00" transform="translate(112,1)"/>
</svg>
